<?xml version="1.0" encoding="UTF-8" standalone="no"?>
<!DOCTYPE svg PUBLIC "-//W3C//DTD SVG 1.1//EN"
 "http://www.w3.org/Graphics/SVG/1.1/DTD/svg11.dtd">
<!-- Generated by graphviz version 2.40.1 (20161225.0304)
 -->
<!-- Title: dot_step_by_step Pages: 1 -->
<svg width="554pt" height="360pt"
 viewBox="0.00 0.00 554.15 360.00" xmlns="http://www.w3.org/2000/svg" xmlns:xlink="http://www.w3.org/1999/xlink">
<g id="graph0" class="graph" transform="scale(.2367 .2367) rotate(0) translate(4 1517)">
<title>dot_step_by_step</title>
<polygon fill="#ffffff" stroke="transparent" points="-4,4 -4,-1517 2337.2752,-1517 2337.2752,4 -4,4"/>
<polygon fill="none" stroke="#00ff00" points="950.6376,-1483 950.6376,-1509 1382.6376,-1509 1382.6376,-1483 950.6376,-1483"/>
<text text-anchor="start" x="1073.3222" y="-1490" font-family="Times,serif" font-weight="bold" font-size="20.00" fill="#000000">follow me to learn dot</text>
<polygon fill="none" stroke="#00ff00" points="950.6376,-1457 950.6376,-1483 1382.6376,-1483 1382.6376,-1457 950.6376,-1457"/>
<text text-anchor="start" x="953.3271" y="-1464" font-family="Times,serif" font-weight="bold" font-size="20.00" fill="#000000">let&#39;s try to draw a finite state machine step by step</text>
<polygon fill="none" stroke="#00ff00" points="950.6376,-1431 950.6376,-1457 1382.6376,-1457 1382.6376,-1431 950.6376,-1431"/>
<text text-anchor="start" x="997.4677" y="-1439" font-family="Times,serif" font-weight="bold" font-style="italic" font-size="20.00" fill="#0000ff">this graph itself is also generated by dot</text>
<polygon fill="none" stroke="#00ff00" points="950.6376,-1405 950.6376,-1431 1382.6376,-1431 1382.6376,-1405 950.6376,-1405"/>
<text text-anchor="start" x="1097.7411" y="-1413" font-family="Times,serif" font-weight="bold" font-style="italic" font-size="20.00" fill="#0000ff">author: levin.lin</text>
<g id="clust1" class="cluster">
<title>cluster_install_graphviz</title>
<polygon fill="none" stroke="#000000" points="8,-826 8,-908 235.7617,-908 235.7617,-826 8,-826"/>
<text text-anchor="middle" x="121.8809" y="-888" font-family="Times,serif" font-weight="bold" font-size="20.00" fill="#000000">install graphviz</text>
</g>
<g id="clust2" class="cluster">
<title>cluster_useful_shell</title>
<polygon fill="none" stroke="#000000" points="256.7617,-827 256.7617,-907 659.7617,-907 659.7617,-827 256.7617,-827"/>
<text text-anchor="middle" x="458.2617" y="-887" font-family="Times,serif" font-weight="bold" font-size="20.00" fill="#000000">useful shell script</text>
</g>
<g id="clust3" class="cluster">
<title>cluster_define_nodes</title>
<polygon fill="none" stroke="#000000" points="680.7617,-827 680.7617,-1393 848.7617,-1393 848.7617,-827 680.7617,-827"/>
<text text-anchor="middle" x="764.7617" y="-1373" font-family="Times,serif" font-weight="bold" font-size="20.00" fill="#000000">define nodes</text>
</g>
<g id="clust4" class="cluster">
<title>cluster_define_edges</title>
<polygon fill="none" stroke="#000000" points="869.7617,-827 869.7617,-1067 2223.7737,-1067 2223.7737,-827 869.7617,-827"/>
<text text-anchor="middle" x="1546.7677" y="-1047" font-family="Times,serif" font-weight="bold" font-size="20.00" fill="#000000">define deges</text>
</g>
<g id="clust5" class="cluster">
<title>cluster_specify_nodes</title>
<polygon fill="none" stroke="#000000" points="1058.7617,-490 1058.7617,-819 2325.2752,-819 2325.2752,-490 1058.7617,-490"/>
<text text-anchor="middle" x="1692.0185" y="-799" font-family="Times,serif" font-weight="bold" font-size="20.00" fill="#000000">specify nodes</text>
</g>
<g id="clust6" class="cluster">
<title>cluster_specify_levels</title>
<polygon fill="none" stroke="#000000" points="1247.7617,-8 1247.7617,-482 2227.7737,-482 2227.7737,-8 1247.7617,-8"/>
<text text-anchor="middle" x="1737.7677" y="-462" font-family="Times,serif" font-weight="bold" font-size="20.00" fill="#000000">specify levels</text>
</g>
<!-- I9 -->
<g id="node1" class="node">
<title>I9</title>
<text text-anchor="middle" x="121.8809" y="-856" font-family="Times,serif" font-size="15.00" fill="#0000ff">$ brew install graphviz</text>
<text text-anchor="middle" x="121.8809" y="-841" font-family="Times,serif" font-size="15.00" fill="#0000ff">$ brew link &#45;&#45;overwrite graphviz</text>
</g>
<!-- U9 -->
<g id="node2" class="node">
<title>U9</title>
<g id="a_node2_0"><a xlink:href="https://github.com/LevinLin/dot_quick_guide/blob/master/dot.sh" xlink:title="&lt;TABLE&gt;">
<text text-anchor="start" x="275.0596" y="-849.8" font-family="Times,serif" font-weight="bold" font-size="14.00" fill="#0000ff"> dot.sh </text>
<text text-anchor="start" x="315.8975" y="-849.8" font-family="Times,serif" font-size="14.00" fill="#000000"> is an useful script to reduce your work, </text>
<text text-anchor="start" x="541.3945" y="-849.8" font-family="Times,serif" font-style="italic" font-size="14.00" fill="#ff0000">click here to get it</text>
</a>
</g>
</g>
<!-- I9&#45;&gt;U9 -->
<g id="edge43" class="edge">
<title>I9&#45;&gt;U9</title>
<path fill="none" stroke="#0000ff" stroke-width="5" d="M227.8522,-853C236.4572,-853 245.3152,-853 254.3165,-853"/>
<polygon fill="#0000ff" stroke="#0000ff" stroke-width="5" points="254.5343,-857.3751 264.5342,-853 254.5342,-848.6251 254.5343,-857.3751"/>
</g>
<!-- N9 -->
<g id="node12" class="node">
<title>N9</title>
<g id="a_node12_1"><a xlink:href="https://github.com/LevinLin/dot_quick_guide/blob/master/define_nodes.dot" xlink:title="&lt;TABLE&gt;">
<text text-anchor="start" x="698.4771" y="-849.8" font-family="Times,serif" font-style="italic" font-size="14.00" fill="#ff0000">click here to get dot file</text>
</a>
</g>
</g>
<!-- U9&#45;&gt;N9 -->
<g id="edge44" class="edge">
<title>U9&#45;&gt;N9</title>
<path fill="none" stroke="#0000ff" stroke-width="5" d="M651.9382,-853C661.0036,-853 669.8657,-853 678.3849,-853"/>
<polygon fill="#0000ff" stroke="#0000ff" stroke-width="5" points="678.597,-857.3751 688.5969,-853 678.5969,-848.6251 678.597,-857.3751"/>
</g>
<!-- N0 -->
<g id="node3" class="node">
<title>N0</title>
<ellipse fill="none" stroke="#000000" cx="764.7617" cy="-1339" rx="30.0035" ry="18"/>
<text text-anchor="middle" x="764.7617" y="-1334.8" font-family="Times,serif" font-size="14.00" fill="#000000">LR_0</text>
</g>
<!-- N1 -->
<g id="node4" class="node">
<title>N1</title>
<ellipse fill="none" stroke="#000000" cx="764.7617" cy="-1285" rx="30.0035" ry="18"/>
<text text-anchor="middle" x="764.7617" y="-1280.8" font-family="Times,serif" font-size="14.00" fill="#000000">LR_1</text>
</g>
<!-- N2 -->
<g id="node5" class="node">
<title>N2</title>
<ellipse fill="none" stroke="#000000" cx="764.7617" cy="-1231" rx="30.0035" ry="18"/>
<text text-anchor="middle" x="764.7617" y="-1226.8" font-family="Times,serif" font-size="14.00" fill="#000000">LR_2</text>
</g>
<!-- N3 -->
<g id="node6" class="node">
<title>N3</title>
<ellipse fill="none" stroke="#000000" cx="764.7617" cy="-1177" rx="30.0035" ry="18"/>
<text text-anchor="middle" x="764.7617" y="-1172.8" font-family="Times,serif" font-size="14.00" fill="#000000">LR_3</text>
</g>
<!-- N4 -->
<g id="node7" class="node">
<title>N4</title>
<ellipse fill="none" stroke="#000000" cx="764.7617" cy="-1123" rx="30.0035" ry="18"/>
<text text-anchor="middle" x="764.7617" y="-1118.8" font-family="Times,serif" font-size="14.00" fill="#000000">LR_4</text>
</g>
<!-- N5 -->
<g id="node8" class="node">
<title>N5</title>
<ellipse fill="none" stroke="#000000" cx="764.7617" cy="-1069" rx="30.0035" ry="18"/>
<text text-anchor="middle" x="764.7617" y="-1064.8" font-family="Times,serif" font-size="14.00" fill="#000000">LR_5</text>
</g>
<!-- N6 -->
<g id="node9" class="node">
<title>N6</title>
<ellipse fill="none" stroke="#000000" cx="764.7617" cy="-1015" rx="30.0035" ry="18"/>
<text text-anchor="middle" x="764.7617" y="-1010.8" font-family="Times,serif" font-size="14.00" fill="#000000">LR_6</text>
</g>
<!-- N7 -->
<g id="node10" class="node">
<title>N7</title>
<ellipse fill="none" stroke="#000000" cx="764.7617" cy="-961" rx="30.0035" ry="18"/>
<text text-anchor="middle" x="764.7617" y="-956.8" font-family="Times,serif" font-size="14.00" fill="#000000">LR_7</text>
</g>
<!-- N8 -->
<g id="node11" class="node">
<title>N8</title>
<ellipse fill="none" stroke="#000000" cx="764.7617" cy="-907" rx="30.0035" ry="18"/>
<text text-anchor="middle" x="764.7617" y="-902.8" font-family="Times,serif" font-size="14.00" fill="#000000">LR_8</text>
</g>
<!-- E9 -->
<g id="node22" class="node">
<title>E9</title>
<g id="a_node22_2"><a xlink:href="https://github.com/LevinLin/dot_quick_guide/blob/master/define_edges.dot" xlink:title="&lt;TABLE&gt;">
<text text-anchor="start" x="887.4771" y="-849.8" font-family="Times,serif" font-style="italic" font-size="14.00" fill="#ff0000">click here to get dot file</text>
</a>
</g>
</g>
<!-- N9&#45;&gt;E9 -->
<g id="edge45" class="edge">
<title>N9&#45;&gt;E9</title>
<path fill="none" stroke="#0000ff" stroke-width="5" d="M840.8183,-853C849.6124,-853 858.6283,-853 867.5451,-853"/>
<polygon fill="#0000ff" stroke="#0000ff" stroke-width="5" points="867.5532,-857.3751 877.5531,-853 867.5531,-848.6251 867.5532,-857.3751"/>
</g>
<!-- E0 -->
<g id="node13" class="node">
<title>E0</title>
<ellipse fill="none" stroke="#000000" cx="953.7617" cy="-939" rx="30.0035" ry="18"/>
<text text-anchor="middle" x="953.7617" y="-934.8" font-family="Times,serif" font-size="14.00" fill="#000000">LR_0</text>
</g>
<!-- E1 -->
<g id="node14" class="node">
<title>E1</title>
<ellipse fill="none" stroke="#000000" cx="1331.7617" cy="-872" rx="30.0035" ry="18"/>
<text text-anchor="middle" x="1331.7617" y="-867.8" font-family="Times,serif" font-size="14.00" fill="#000000">LR_1</text>
</g>
<!-- E0&#45;&gt;E1 -->
<g id="edge2" class="edge">
<title>E0&#45;&gt;E1</title>
<path fill="none" stroke="#000000" d="M982.7951,-933.8539C1049.9956,-921.9427 1216.3028,-892.4649 1292.496,-878.9598"/>
<polygon fill="#000000" stroke="#000000" points="1293.3938,-882.3553 1302.6294,-877.1637 1292.172,-875.4627 1293.3938,-882.3553"/>
<text text-anchor="middle" x="1142.7617" y="-922.8" font-family="Times,serif" font-size="14.00" fill="#000000">SS(S)</text>
</g>
<!-- E2 -->
<g id="node15" class="node">
<title>E2</title>
<ellipse fill="none" stroke="#000000" cx="1331.7617" cy="-967" rx="30.0035" ry="18"/>
<text text-anchor="middle" x="1331.7617" y="-962.8" font-family="Times,serif" font-size="14.00" fill="#000000">LR_2</text>
</g>
<!-- E0&#45;&gt;E2 -->
<g id="edge1" class="edge">
<title>E0&#45;&gt;E2</title>
<path fill="none" stroke="#000000" d="M984.0561,-941.244C1051.7376,-946.2575 1215.2453,-958.3692 1291.434,-964.0128"/>
<polygon fill="#000000" stroke="#000000" points="1291.3547,-967.5164 1301.5859,-964.7648 1291.8718,-960.5355 1291.3547,-967.5164"/>
<text text-anchor="middle" x="1142.7617" y="-960.8" font-family="Times,serif" font-size="14.00" fill="#000000">SS(B)</text>
</g>
<!-- E3 -->
<g id="node16" class="node">
<title>E3</title>
<ellipse fill="none" stroke="#000000" cx="1572.514" cy="-853" rx="30.0035" ry="18"/>
<text text-anchor="middle" x="1572.514" y="-848.8" font-family="Times,serif" font-size="14.00" fill="#000000">LR_3</text>
</g>
<!-- E1&#45;&gt;E3 -->
<g id="edge3" class="edge">
<title>E1&#45;&gt;E3</title>
<path fill="none" stroke="#000000" d="M1361.7664,-869.6321C1404.8646,-866.2308 1484.3846,-859.9551 1532.4619,-856.1609"/>
<polygon fill="#000000" stroke="#000000" points="1532.8166,-859.6439 1542.5103,-855.3679 1532.2659,-852.6656 1532.8166,-859.6439"/>
<text text-anchor="middle" x="1475.0125" y="-864.8" font-family="Times,serif" font-size="14.00" fill="#000000">S($end)</text>
</g>
<!-- E4 -->
<g id="node17" class="node">
<title>E4</title>
<ellipse fill="none" stroke="#000000" cx="1572.514" cy="-1013" rx="30.0035" ry="18"/>
<text text-anchor="middle" x="1572.514" y="-1008.8" font-family="Times,serif" font-size="14.00" fill="#000000">LR_4</text>
</g>
<!-- E2&#45;&gt;E4 -->
<g id="edge6" class="edge">
<title>E2&#45;&gt;E4</title>
<path fill="none" stroke="#000000" d="M1360.8021,-972.5487C1403.9125,-980.7857 1484.9376,-996.267 1533.284,-1005.5044"/>
<polygon fill="#000000" stroke="#000000" points="1532.8914,-1008.9927 1543.3706,-1007.4316 1534.2052,-1002.117 1532.8914,-1008.9927"/>
<text text-anchor="middle" x="1475.0125" y="-1002.8" font-family="Times,serif" font-size="14.00" fill="#000000">S(A)</text>
</g>
<!-- E5 -->
<g id="node18" class="node">
<title>E5</title>
<ellipse fill="none" stroke="#000000" cx="1572.514" cy="-907" rx="30.0035" ry="18"/>
<text text-anchor="middle" x="1572.514" y="-902.8" font-family="Times,serif" font-size="14.00" fill="#000000">LR_5</text>
</g>
<!-- E2&#45;&gt;E5 -->
<g id="edge5" class="edge">
<title>E2&#45;&gt;E5</title>
<path fill="none" stroke="#000000" d="M1359.8502,-959.9998C1403.1601,-949.2062 1486.3024,-928.4856 1534.8066,-916.3974"/>
<polygon fill="#000000" stroke="#000000" points="1535.7475,-919.77 1544.6044,-913.9556 1534.0547,-912.9778 1535.7475,-919.77"/>
<text text-anchor="middle" x="1475.0125" y="-940.8" font-family="Times,serif" font-size="14.00" fill="#000000">SS(a)</text>
</g>
<!-- E6 -->
<g id="node19" class="node">
<title>E6</title>
<ellipse fill="none" stroke="#000000" cx="2185.523" cy="-920" rx="30.0035" ry="18"/>
<text text-anchor="middle" x="2185.523" y="-915.8" font-family="Times,serif" font-size="14.00" fill="#000000">LR_6</text>
</g>
<!-- E2&#45;&gt;E6 -->
<g id="edge4" class="edge">
<title>E2&#45;&gt;E6</title>
<path fill="none" stroke="#000000" d="M1361.9301,-968.944C1439.7712,-973.7865 1653.7905,-986 1832.2677,-986 1832.2677,-986 1832.2677,-986 2080.0215,-986 2113.2088,-986 2144.5541,-962.2371 2164.319,-943.2285"/>
<polygon fill="#000000" stroke="#000000" points="2166.9692,-945.5277 2171.5551,-935.9768 2162.0141,-940.5833 2166.9692,-945.5277"/>
<text text-anchor="middle" x="1779.517" y="-987.8" font-family="Times,serif" font-size="14.00" fill="#000000">SS(b)</text>
</g>
<!-- E5&#45;&gt;E5 -->
<g id="edge8" class="edge">
<title>E5&#45;&gt;E5</title>
<path fill="none" stroke="#000000" d="M1563.9446,-924.4099C1562.345,-934.0879 1565.2015,-943 1572.514,-943 1577.0843,-943 1579.9139,-939.5187 1581.003,-934.5449"/>
<polygon fill="#000000" stroke="#000000" points="1584.5038,-934.4374 1581.0833,-924.4099 1577.5041,-934.3818 1584.5038,-934.4374"/>
<text text-anchor="middle" x="1572.514" y="-945.8" font-family="Times,serif" font-size="14.00" fill="#000000">S(a)</text>
</g>
<!-- E7 -->
<g id="node20" class="node">
<title>E7</title>
<ellipse fill="none" stroke="#000000" cx="1779.517" cy="-882" rx="30.0035" ry="18"/>
<text text-anchor="middle" x="1779.517" y="-877.8" font-family="Times,serif" font-size="14.00" fill="#000000">LR_7</text>
</g>
<!-- E5&#45;&gt;E7 -->
<g id="edge7" class="edge">
<title>E5&#45;&gt;E7</title>
<path fill="none" stroke="#000000" d="M1602.7779,-904.7243C1630.3353,-902.5044 1672.1185,-898.7686 1708.2662,-894 1718.7128,-892.6219 1729.9751,-890.8562 1740.393,-889.1056"/>
<polygon fill="#000000" stroke="#000000" points="1741.205,-892.5175 1750.4681,-887.375 1740.0198,-885.6185 1741.205,-892.5175"/>
<text text-anchor="middle" x="1674.0155" y="-903.8" font-family="Times,serif" font-size="14.00" fill="#000000">S(b)</text>
</g>
<!-- E6&#45;&gt;E5 -->
<g id="edge10" class="edge">
<title>E6&#45;&gt;E5</title>
<path fill="none" stroke="#000000" d="M2171.6046,-903.7812C2152.9466,-883.9523 2117.7753,-853 2080.0215,-853 1929.7692,-853 1929.7692,-853 1929.7692,-853 1800.7282,-853 1763.0854,-829.0055 1639.7647,-867 1625.5916,-871.3667 1611.2764,-879.2835 1599.5179,-886.9283"/>
<polygon fill="#000000" stroke="#000000" points="1597.381,-884.1485 1591.0692,-892.6581 1601.31,-889.9419 1597.381,-884.1485"/>
<text text-anchor="middle" x="1881.0185" y="-854.8" font-family="Times,serif" font-size="14.00" fill="#000000">S(a)</text>
</g>
<!-- E6&#45;&gt;E6 -->
<g id="edge9" class="edge">
<title>E6&#45;&gt;E6</title>
<path fill="none" stroke="#000000" d="M2176.2395,-937.4099C2174.5066,-947.0879 2177.6011,-956 2185.523,-956 2190.4741,-956 2193.5396,-952.5187 2194.7194,-947.5449"/>
<polygon fill="#000000" stroke="#000000" points="2198.2203,-947.4396 2194.8064,-937.4099 2191.2206,-947.3794 2198.2203,-947.4396"/>
<text text-anchor="middle" x="2185.523" y="-958.8" font-family="Times,serif" font-size="14.00" fill="#000000">S(b)</text>
</g>
<!-- E7&#45;&gt;E5 -->
<g id="edge12" class="edge">
<title>E7&#45;&gt;E5</title>
<path fill="none" stroke="#000000" d="M1750.5044,-876.4626C1721.9753,-872.0171 1677.3621,-867.7516 1639.7647,-876 1627.2072,-878.755 1614.1985,-884.0878 1603.0074,-889.5643"/>
<polygon fill="#000000" stroke="#000000" points="1601.3821,-886.4643 1594.0841,-894.1448 1604.5788,-892.6918 1601.3821,-886.4643"/>
<text text-anchor="middle" x="1674.0155" y="-878.8" font-family="Times,serif" font-size="14.00" fill="#000000">S(a)</text>
</g>
<!-- E8 -->
<g id="node21" class="node">
<title>E8</title>
<ellipse fill="none" stroke="#000000" cx="1978.52" cy="-920" rx="30.0035" ry="18"/>
<text text-anchor="middle" x="1978.52" y="-915.8" font-family="Times,serif" font-size="14.00" fill="#000000">LR_8</text>
</g>
<!-- E7&#45;&gt;E8 -->
<g id="edge11" class="edge">
<title>E7&#45;&gt;E8</title>
<path fill="none" stroke="#000000" d="M1808.4537,-887.5255C1842.9409,-894.1109 1900.7293,-905.1457 1939.2346,-912.4984"/>
<polygon fill="#000000" stroke="#000000" points="1939.0693,-916.03 1949.5483,-914.4678 1940.3823,-909.1542 1939.0693,-916.03"/>
<text text-anchor="middle" x="1881.0185" y="-908.8" font-family="Times,serif" font-size="14.00" fill="#000000">S(b)</text>
</g>
<!-- E8&#45;&gt;E5 -->
<g id="edge14" class="edge">
<title>E8&#45;&gt;E5</title>
<path fill="none" stroke="#000000" d="M1948.4074,-922.1738C1936.8065,-922.9108 1923.4278,-923.6387 1911.2692,-924 1790.6333,-927.5845 1759.8493,-931.065 1639.7647,-919 1630.4055,-918.0597 1620.3904,-916.5502 1611.0243,-914.9144"/>
<polygon fill="#000000" stroke="#000000" points="1611.6444,-911.4699 1601.1774,-913.1109 1610.3832,-918.3553 1611.6444,-911.4699"/>
<text text-anchor="middle" x="1779.517" y="-929.8" font-family="Times,serif" font-size="14.00" fill="#000000">S(a)</text>
</g>
<!-- E8&#45;&gt;E6 -->
<g id="edge13" class="edge">
<title>E8&#45;&gt;E6</title>
<path fill="none" stroke="#000000" d="M2009.064,-920C2045.0941,-920 2105.1236,-920 2145.0115,-920"/>
<polygon fill="#000000" stroke="#000000" points="2145.1909,-923.5001 2155.1909,-920 2145.1908,-916.5001 2145.1909,-923.5001"/>
<text text-anchor="middle" x="2080.0215" y="-922.8" font-family="Times,serif" font-size="14.00" fill="#000000">S(b)</text>
</g>
<!-- S9 -->
<g id="node32" class="node">
<title>S9</title>
<g id="a_node32_3"><a xlink:href="https://github.com/LevinLin/dot_quick_guide/blob/master/specify_nodes.dot" xlink:title="&lt;TABLE&gt;">
<text text-anchor="start" x="1076.4771" y="-567.8" font-family="Times,serif" font-style="italic" font-size="14.00" fill="#ff0000">click here to get dot file</text>
</a>
</g>
</g>
<!-- E9&#45;&gt;S9 -->
<g id="edge46" class="edge">
<title>E9&#45;&gt;S9</title>
<path fill="none" stroke="#0000ff" stroke-width="5" d="M958.345,-834.7967C969.5006,-793.4513 1001.4423,-690.9476 1058.7617,-625 1069.2107,-612.9781 1082.9789,-602.6301 1096.338,-594.3028"/>
<polygon fill="#0000ff" stroke="#0000ff" stroke-width="5" points="1098.6715,-598.0051 1105.0187,-589.1251 1094.1892,-590.4903 1098.6715,-598.0051"/>
</g>
<!-- S0 -->
<g id="node23" class="node">
<title>S0</title>
<ellipse fill="#ffff00" stroke="#000000" cx="1142.7617" cy="-668" rx="30.0322" ry="30.0322"/>
<ellipse fill="none" stroke="#000000" cx="1142.7617" cy="-668" rx="34.0033" ry="34.0033"/>
<text text-anchor="middle" x="1142.7617" y="-663.8" font-family="Times,serif" font-size="14.00" fill="#000000">LR_0</text>
</g>
<!-- S1 -->
<g id="node27" class="node">
<title>S1</title>
<ellipse fill="none" stroke="#000000" cx="1475.0125" cy="-595" rx="30.0035" ry="30.0035"/>
<text text-anchor="middle" x="1475.0125" y="-590.8" font-family="Times,serif" font-size="14.00" fill="#000000">LR_1</text>
</g>
<!-- S0&#45;&gt;S1 -->
<g id="edge16" class="edge">
<title>S0&#45;&gt;S1</title>
<path fill="none" stroke="#000000" d="M1176.4481,-660.5986C1238.1479,-647.0424 1369.0127,-618.2896 1435.0782,-603.7741"/>
<polygon fill="#000000" stroke="#000000" points="1436.0885,-607.1357 1445.1044,-601.5712 1434.5863,-600.2988 1436.0885,-607.1357"/>
<text text-anchor="middle" x="1331.7617" y="-646.8" font-family="Times,serif" font-size="14.00" fill="#000000">SS(S)</text>
</g>
<!-- S2 -->
<g id="node28" class="node">
<title>S2</title>
<ellipse fill="none" stroke="#000000" cx="1475.0125" cy="-685" rx="30.0035" ry="30.0035"/>
<text text-anchor="middle" x="1475.0125" y="-680.8" font-family="Times,serif" font-size="14.00" fill="#000000">LR_2</text>
</g>
<!-- S0&#45;&gt;S2 -->
<g id="edge15" class="edge">
<title>S0&#45;&gt;S2</title>
<path fill="none" stroke="#000000" d="M1177.067,-669.7553C1238.9174,-672.9199 1368.806,-679.5658 1434.7538,-682.9401"/>
<polygon fill="#000000" stroke="#000000" points="1434.603,-686.4369 1444.7688,-683.4525 1434.9608,-679.446 1434.603,-686.4369"/>
<text text-anchor="middle" x="1331.7617" y="-683.8" font-family="Times,serif" font-size="14.00" fill="#000000">SS(B)</text>
</g>
<!-- S3 -->
<g id="node24" class="node">
<title>S3</title>
<ellipse fill="#ffff00" stroke="#000000" cx="1674.0155" cy="-532" rx="30.0322" ry="30.0322"/>
<ellipse fill="none" stroke="#000000" cx="1674.0155" cy="-532" rx="34.0033" ry="34.0033"/>
<text text-anchor="middle" x="1674.0155" y="-527.8" font-family="Times,serif" font-size="14.00" fill="#000000">LR_3</text>
</g>
<!-- S4 -->
<g id="node25" class="node">
<title>S4</title>
<ellipse fill="#ffff00" stroke="#000000" cx="1674.0155" cy="-749" rx="30.0322" ry="30.0322"/>
<ellipse fill="none" stroke="#000000" cx="1674.0155" cy="-749" rx="34.0033" ry="34.0033"/>
<text text-anchor="middle" x="1674.0155" y="-744.8" font-family="Times,serif" font-size="14.00" fill="#000000">LR_4</text>
</g>
<!-- S8 -->
<g id="node26" class="node">
<title>S8</title>
<ellipse fill="#ffff00" stroke="#000000" cx="2080.0215" cy="-620" rx="30.0322" ry="30.0322"/>
<ellipse fill="none" stroke="#000000" cx="2080.0215" cy="-620" rx="34.0033" ry="34.0033"/>
<text text-anchor="middle" x="2080.0215" y="-615.8" font-family="Times,serif" font-size="14.00" fill="#000000">LR_8</text>
</g>
<!-- S5 -->
<g id="node29" class="node">
<title>S5</title>
<ellipse fill="none" stroke="#000000" cx="1674.0155" cy="-615" rx="30.0035" ry="30.0035"/>
<text text-anchor="middle" x="1674.0155" y="-610.8" font-family="Times,serif" font-size="14.00" fill="#000000">LR_5</text>
</g>
<!-- S8&#45;&gt;S5 -->
<g id="edge28" class="edge">
<title>S8&#45;&gt;S5</title>
<path fill="none" stroke="#000000" d="M2048.099,-632.5431C2028.3701,-639.1917 2002.3498,-646 1978.52,-646 1779.517,-646 1779.517,-646 1779.517,-646 1756.0564,-646 1730.8082,-638.8564 1710.8949,-631.4276"/>
<polygon fill="#000000" stroke="#000000" points="1712.1671,-628.167 1701.579,-627.7879 1709.6196,-634.6871 1712.1671,-628.167"/>
<text text-anchor="middle" x="1881.0185" y="-648.8" font-family="Times,serif" font-size="14.00" fill="#000000">S(a)</text>
</g>
<!-- S6 -->
<g id="node30" class="node">
<title>S6</title>
<ellipse fill="none" stroke="#000000" cx="2287.0245" cy="-620" rx="30.0035" ry="30.0035"/>
<text text-anchor="middle" x="2287.0245" y="-615.8" font-family="Times,serif" font-size="14.00" fill="#000000">LR_6</text>
</g>
<!-- S8&#45;&gt;S6 -->
<g id="edge27" class="edge">
<title>S8&#45;&gt;S6</title>
<path fill="none" stroke="#000000" d="M2114.6691,-620C2150.9645,-620 2207.9342,-620 2246.3418,-620"/>
<polygon fill="#000000" stroke="#000000" points="2246.6499,-623.5001 2256.6498,-620 2246.6498,-616.5001 2246.6499,-623.5001"/>
<text text-anchor="middle" x="2185.523" y="-622.8" font-family="Times,serif" font-size="14.00" fill="#000000">S(b)</text>
</g>
<!-- S1&#45;&gt;S3 -->
<g id="edge17" class="edge">
<title>S1&#45;&gt;S3</title>
<path fill="none" stroke="#000000" d="M1503.9492,-585.8393C1537.3963,-575.2506 1592.7604,-557.7236 1631.1948,-545.5561"/>
<polygon fill="#000000" stroke="#000000" points="1632.5879,-548.7863 1641.0652,-542.4313 1630.4752,-542.1128 1632.5879,-548.7863"/>
<text text-anchor="middle" x="1572.514" y="-575.8" font-family="Times,serif" font-size="14.00" fill="#000000">S($end)</text>
</g>
<!-- S2&#45;&gt;S4 -->
<g id="edge20" class="edge">
<title>S2&#45;&gt;S4</title>
<path fill="none" stroke="#000000" d="M1503.8252,-694.6167C1510.2203,-696.7338 1516.9682,-698.9542 1523.2632,-701 1559.7576,-712.8603 1601.3171,-726.071 1631.5445,-735.6259"/>
<polygon fill="#000000" stroke="#000000" points="1630.7476,-739.0446 1641.3374,-738.7189 1632.8559,-732.3696 1630.7476,-739.0446"/>
<text text-anchor="middle" x="1572.514" y="-727.8" font-family="Times,serif" font-size="14.00" fill="#000000">S(A)</text>
</g>
<!-- S2&#45;&gt;S5 -->
<g id="edge19" class="edge">
<title>S2&#45;&gt;S5</title>
<path fill="none" stroke="#000000" d="M1503.9492,-674.8214C1538.6828,-662.6038 1597.0516,-642.0723 1635.5522,-628.5296"/>
<polygon fill="#000000" stroke="#000000" points="1637.0946,-631.6973 1645.3667,-625.0773 1634.7718,-625.0939 1637.0946,-631.6973"/>
<text text-anchor="middle" x="1572.514" y="-662.8" font-family="Times,serif" font-size="14.00" fill="#000000">SS(a)</text>
</g>
<!-- S2&#45;&gt;S6 -->
<g id="edge18" class="edge">
<title>S2&#45;&gt;S6</title>
<path fill="none" stroke="#000000" d="M1505.2176,-690.1779C1524.4259,-693.031 1549.8578,-696 1572.514,-696 1572.514,-696 1572.514,-696 2185.523,-696 2216.3651,-696 2243.8495,-673.2375 2262.414,-652.6271"/>
<polygon fill="#000000" stroke="#000000" points="2265.2075,-654.7468 2269.0806,-644.8852 2259.9031,-650.179 2265.2075,-654.7468"/>
<text text-anchor="middle" x="1881.0185" y="-698.8" font-family="Times,serif" font-size="14.00" fill="#000000">SS(b)</text>
</g>
<!-- S5&#45;&gt;S5 -->
<g id="edge22" class="edge">
<title>S5&#45;&gt;S5</title>
<path fill="none" stroke="#000000" d="M1664.2869,-643.7305C1663.9679,-654.4374 1667.2108,-663.2507 1674.0155,-663.2507 1678.481,-663.2507 1681.4127,-659.4551 1682.8103,-653.8197"/>
<polygon fill="#000000" stroke="#000000" points="1686.3075,-654.0105 1683.744,-643.7305 1679.3373,-653.3654 1686.3075,-654.0105"/>
<text text-anchor="middle" x="1674.0155" y="-666.0507" font-family="Times,serif" font-size="14.00" fill="#000000">S(a)</text>
</g>
<!-- S7 -->
<g id="node31" class="node">
<title>S7</title>
<ellipse fill="none" stroke="#000000" cx="1881.0185" cy="-580" rx="30.0035" ry="30.0035"/>
<text text-anchor="middle" x="1881.0185" y="-575.8" font-family="Times,serif" font-size="14.00" fill="#000000">LR_7</text>
</g>
<!-- S5&#45;&gt;S7 -->
<g id="edge21" class="edge">
<title>S5&#45;&gt;S7</title>
<path fill="none" stroke="#000000" d="M1704.1155,-609.9107C1740.219,-603.8063 1800.8723,-593.5511 1840.9216,-586.7796"/>
<polygon fill="#000000" stroke="#000000" points="1841.6056,-590.2137 1850.8821,-585.0954 1840.4385,-583.3116 1841.6056,-590.2137"/>
<text text-anchor="middle" x="1779.517" y="-604.8" font-family="Times,serif" font-size="14.00" fill="#000000">S(b)</text>
</g>
<!-- S6&#45;&gt;S5 -->
<g id="edge24" class="edge">
<title>S6&#45;&gt;S5</title>
<path fill="none" stroke="#000000" d="M2272.841,-593.0634C2256.0487,-565.2866 2225.2723,-526 2185.523,-526 1779.517,-526 1779.517,-526 1779.517,-526 1760.8693,-526 1725.9011,-558.8953 1701.3491,-584.6882"/>
<polygon fill="#000000" stroke="#000000" points="1698.7018,-582.3943 1694.4085,-592.0803 1703.805,-587.1858 1698.7018,-582.3943"/>
<text text-anchor="middle" x="1978.52" y="-528.8" font-family="Times,serif" font-size="14.00" fill="#000000">S(a)</text>
</g>
<!-- S6&#45;&gt;S6 -->
<g id="edge23" class="edge">
<title>S6&#45;&gt;S6</title>
<path fill="none" stroke="#000000" d="M2278.0332,-649.2086C2277.8399,-659.6985 2280.837,-668.2507 2287.0245,-668.2507 2290.9883,-668.2507 2293.6428,-664.7409 2294.988,-659.4603"/>
<polygon fill="#000000" stroke="#000000" points="2298.5007,-659.5079 2296.0157,-649.2086 2291.5356,-658.8096 2298.5007,-659.5079"/>
<text text-anchor="middle" x="2287.0245" y="-671.0507" font-family="Times,serif" font-size="14.00" fill="#000000">S(b)</text>
</g>
<!-- S7&#45;&gt;S8 -->
<g id="edge25" class="edge">
<title>S7&#45;&gt;S8</title>
<path fill="none" stroke="#000000" d="M1910.8112,-585.9884C1944.0131,-592.662 1998.0251,-603.5186 2036.0796,-611.1676"/>
<polygon fill="#000000" stroke="#000000" points="2035.8655,-614.6945 2046.3592,-613.2338 2037.245,-607.8318 2035.8655,-614.6945"/>
<text text-anchor="middle" x="1978.52" y="-607.8" font-family="Times,serif" font-size="14.00" fill="#000000">S(b)</text>
</g>
<!-- S7&#45;&gt;S5 -->
<g id="edge26" class="edge">
<title>S7&#45;&gt;S5</title>
<path fill="none" stroke="#000000" d="M1851.3174,-573.1948C1823.424,-568.0298 1780.7834,-563.3109 1745.2662,-573 1731.7986,-576.674 1718.2843,-583.6146 1706.701,-590.811"/>
<polygon fill="#000000" stroke="#000000" points="1704.7213,-587.9235 1698.2524,-596.3141 1708.5419,-593.7889 1704.7213,-587.9235"/>
<text text-anchor="middle" x="1779.517" y="-575.8" font-family="Times,serif" font-size="14.00" fill="#000000">S(a)</text>
</g>
<!-- L9 -->
<g id="node42" class="node">
<title>L9</title>
<g id="a_node42_4"><a xlink:href="https://github.com/LevinLin/dot_quick_guide/blob/master/specify_levels.dot" xlink:title="&lt;TABLE&gt;">
<text text-anchor="start" x="1265.4771" y="-223.8" font-family="Times,serif" font-style="italic" font-size="14.00" fill="#ff0000">click here to get dot file</text>
</a>
</g>
</g>
<!-- S9&#45;&gt;L9 -->
<g id="edge47" class="edge">
<title>S9&#45;&gt;L9</title>
<path fill="none" stroke="#0000ff" stroke-width="5" d="M1146.5727,-552.5874C1159.523,-491.6453 1203.4977,-297.8736 1247.7617,-254 1248.7103,-253.0598 1249.6916,-252.1524 1250.7025,-251.2765"/>
<polygon fill="#0000ff" stroke="#0000ff" stroke-width="5" points="1253.534,-254.624 1258.9745,-245.1612 1248.3324,-247.5879 1253.534,-254.624"/>
</g>
<!-- L0 -->
<g id="node33" class="node">
<title>L0</title>
<ellipse fill="#ffff00" stroke="#000000" cx="1331.7617" cy="-297" rx="30.0322" ry="30.0322"/>
<ellipse fill="none" stroke="#000000" cx="1331.7617" cy="-297" rx="34.0033" ry="34.0033"/>
<text text-anchor="middle" x="1331.7617" y="-292.8" font-family="Times,serif" font-size="14.00" fill="#000000">LR_0</text>
</g>
<!-- L1 -->
<g id="node37" class="node">
<title>L1</title>
<ellipse fill="none" stroke="#000000" cx="1572.514" cy="-176" rx="30.0035" ry="30.0035"/>
<text text-anchor="middle" x="1572.514" y="-171.8" font-family="Times,serif" font-size="14.00" fill="#000000">LR_1</text>
</g>
<!-- L0&#45;&gt;L1 -->
<g id="edge30" class="edge">
<title>L0&#45;&gt;L1</title>
<path fill="none" stroke="#000000" d="M1362.743,-281.4291C1407.2719,-259.0492 1489.1892,-217.8783 1536.4039,-194.1486"/>
<polygon fill="#000000" stroke="#000000" points="1537.9995,-197.2639 1545.3628,-189.6459 1534.856,-191.0094 1537.9995,-197.2639"/>
<text text-anchor="middle" x="1475.0125" y="-242.8" font-family="Times,serif" font-size="14.00" fill="#000000">SS(S)</text>
</g>
<!-- L2 -->
<g id="node38" class="node">
<title>L2</title>
<ellipse fill="none" stroke="#000000" cx="1572.514" cy="-297" rx="30.0035" ry="30.0035"/>
<text text-anchor="middle" x="1572.514" y="-292.8" font-family="Times,serif" font-size="14.00" fill="#000000">LR_2</text>
</g>
<!-- L0&#45;&gt;L2 -->
<g id="edge29" class="edge">
<title>L0&#45;&gt;L2</title>
<path fill="none" stroke="#000000" d="M1366.2556,-297C1410.0134,-297 1485.3631,-297 1531.8665,-297"/>
<polygon fill="#000000" stroke="#000000" points="1531.8966,-300.5001 1541.8965,-297 1531.8965,-293.5001 1531.8966,-300.5001"/>
<text text-anchor="middle" x="1475.0125" y="-299.8" font-family="Times,serif" font-size="14.00" fill="#000000">SS(B)</text>
</g>
<!-- L3 -->
<g id="node34" class="node">
<title>L3</title>
<ellipse fill="#ffff00" stroke="#000000" cx="1779.517" cy="-50" rx="30.0322" ry="30.0322"/>
<ellipse fill="none" stroke="#000000" cx="1779.517" cy="-50" rx="34.0033" ry="34.0033"/>
<text text-anchor="middle" x="1779.517" y="-45.8" font-family="Times,serif" font-size="14.00" fill="#000000">LR_3</text>
</g>
<!-- L4 -->
<g id="node35" class="node">
<title>L4</title>
<ellipse fill="#ffff00" stroke="#000000" cx="1779.517" cy="-412" rx="30.0322" ry="30.0322"/>
<ellipse fill="none" stroke="#000000" cx="1779.517" cy="-412" rx="34.0033" ry="34.0033"/>
<text text-anchor="middle" x="1779.517" y="-407.8" font-family="Times,serif" font-size="14.00" fill="#000000">LR_4</text>
</g>
<!-- L8 -->
<g id="node36" class="node">
<title>L8</title>
<ellipse fill="#ffff00" stroke="#000000" cx="2185.523" cy="-239" rx="30.0322" ry="30.0322"/>
<ellipse fill="none" stroke="#000000" cx="2185.523" cy="-239" rx="34.0033" ry="34.0033"/>
<text text-anchor="middle" x="2185.523" y="-234.8" font-family="Times,serif" font-size="14.00" fill="#000000">LR_8</text>
</g>
<!-- L5 -->
<g id="node39" class="node">
<title>L5</title>
<ellipse fill="none" stroke="#000000" cx="1779.517" cy="-297" rx="30.0035" ry="30.0035"/>
<text text-anchor="middle" x="1779.517" y="-292.8" font-family="Times,serif" font-size="14.00" fill="#000000">LR_5</text>
</g>
<!-- L8&#45;&gt;L5 -->
<g id="edge42" class="edge">
<title>L8&#45;&gt;L5</title>
<path fill="none" stroke="#000000" d="M2163.8868,-266.1347C2144.4395,-287.2542 2113.8042,-313 2080.0215,-313 1881.0185,-313 1881.0185,-313 1881.0185,-313 1860.3973,-313 1837.7038,-309.7378 1819.0138,-306.1594"/>
<polygon fill="#000000" stroke="#000000" points="1819.5754,-302.7023 1809.081,-304.1576 1818.1924,-309.5644 1819.5754,-302.7023"/>
<text text-anchor="middle" x="1978.52" y="-315.8" font-family="Times,serif" font-size="14.00" fill="#000000">S(a)</text>
</g>
<!-- L6 -->
<g id="node40" class="node">
<title>L6</title>
<ellipse fill="none" stroke="#000000" cx="1779.517" cy="-133" rx="30.0035" ry="30.0035"/>
<text text-anchor="middle" x="1779.517" y="-128.8" font-family="Times,serif" font-size="14.00" fill="#000000">LR_6</text>
</g>
<!-- L8&#45;&gt;L6 -->
<g id="edge41" class="edge">
<title>L8&#45;&gt;L6</title>
<path fill="none" stroke="#000000" d="M2168.2037,-209.3842C2150.0017,-182.4897 2118.6619,-147 2080.0215,-147 1881.0185,-147 1881.0185,-147 1881.0185,-147 1860.4559,-147 1837.7681,-144.1456 1819.0668,-141.0145"/>
<polygon fill="#000000" stroke="#000000" points="1819.5817,-137.5514 1809.1261,-139.2629 1818.367,-144.4452 1819.5817,-137.5514"/>
<text text-anchor="middle" x="1978.52" y="-149.8" font-family="Times,serif" font-size="14.00" fill="#000000">S(b)</text>
</g>
<!-- L1&#45;&gt;L3 -->
<g id="edge31" class="edge">
<title>L1&#45;&gt;L3</title>
<path fill="none" stroke="#000000" d="M1598.731,-160.042C1634.8135,-138.0791 1700.0104,-98.3946 1741.4612,-73.1641"/>
<polygon fill="#000000" stroke="#000000" points="1743.4589,-76.0455 1750.1812,-67.8563 1739.8193,-70.0661 1743.4589,-76.0455"/>
<text text-anchor="middle" x="1674.0155" y="-137.8" font-family="Times,serif" font-size="14.00" fill="#000000">S($end)</text>
</g>
<!-- L2&#45;&gt;L4 -->
<g id="edge34" class="edge">
<title>L2&#45;&gt;L4</title>
<path fill="none" stroke="#000000" d="M1599.1522,-311.7988C1634.988,-331.7073 1698.9869,-367.2617 1740.3221,-390.2254"/>
<polygon fill="#000000" stroke="#000000" points="1738.8484,-393.4105 1749.2897,-395.2073 1742.2479,-387.2913 1738.8484,-393.4105"/>
<text text-anchor="middle" x="1674.0155" y="-373.8" font-family="Times,serif" font-size="14.00" fill="#000000">S(A)</text>
</g>
<!-- L2&#45;&gt;L5 -->
<g id="edge33" class="edge">
<title>L2&#45;&gt;L5</title>
<path fill="none" stroke="#000000" d="M1603.058,-297C1639.0881,-297 1699.1176,-297 1739.0055,-297"/>
<polygon fill="#000000" stroke="#000000" points="1739.1849,-300.5001 1749.1849,-297 1739.1848,-293.5001 1739.1849,-300.5001"/>
<text text-anchor="middle" x="1674.0155" y="-299.8" font-family="Times,serif" font-size="14.00" fill="#000000">SS(a)</text>
</g>
<!-- L2&#45;&gt;L6 -->
<g id="edge32" class="edge">
<title>L2&#45;&gt;L6</title>
<path fill="none" stroke="#000000" d="M1596.2598,-278.1871C1633.5948,-248.6081 1706.0604,-191.1966 1747.8094,-158.1206"/>
<polygon fill="#000000" stroke="#000000" points="1750.0653,-160.7987 1755.7301,-151.8454 1745.7184,-155.3119 1750.0653,-160.7987"/>
<text text-anchor="middle" x="1674.0155" y="-246.8" font-family="Times,serif" font-size="14.00" fill="#000000">SS(b)</text>
</g>
<!-- L5&#45;&gt;L5 -->
<g id="edge36" class="edge">
<title>L5&#45;&gt;L5</title>
<path fill="none" stroke="#000000" d="M1769.7884,-325.7305C1769.4694,-336.4374 1772.7123,-345.2507 1779.517,-345.2507 1783.9825,-345.2507 1786.9142,-341.4551 1788.3118,-335.8197"/>
<polygon fill="#000000" stroke="#000000" points="1791.809,-336.0105 1789.2455,-325.7305 1784.8388,-335.3654 1791.809,-336.0105"/>
<text text-anchor="middle" x="1779.517" y="-348.0507" font-family="Times,serif" font-size="14.00" fill="#000000">S(a)</text>
</g>
<!-- L7 -->
<g id="node41" class="node">
<title>L7</title>
<ellipse fill="none" stroke="#000000" cx="1978.52" cy="-239" rx="30.0035" ry="30.0035"/>
<text text-anchor="middle" x="1978.52" y="-234.8" font-family="Times,serif" font-size="14.00" fill="#000000">LR_7</text>
</g>
<!-- L5&#45;&gt;L7 -->
<g id="edge35" class="edge">
<title>L5&#45;&gt;L7</title>
<path fill="none" stroke="#000000" d="M1801.1861,-275.4264C1814.3467,-263.8186 1832.1594,-250.5686 1850.7677,-244 1878.8215,-234.0973 1912.519,-233.1934 1938.2603,-234.58"/>
<polygon fill="#000000" stroke="#000000" points="1938.1981,-238.0837 1948.4113,-235.266 1938.6701,-231.0996 1938.1981,-238.0837"/>
<text text-anchor="middle" x="1881.0185" y="-246.8" font-family="Times,serif" font-size="14.00" fill="#000000">S(b)</text>
</g>
<!-- L6&#45;&gt;L5 -->
<g id="edge38" class="edge">
<title>L6&#45;&gt;L5</title>
<path fill="none" stroke="#000000" d="M1779.517,-163.4628C1779.517,-189.6979 1779.517,-227.7693 1779.517,-256.5545"/>
<polygon fill="#000000" stroke="#000000" points="1776.0171,-256.7003 1779.517,-266.7003 1783.0171,-256.7004 1776.0171,-256.7003"/>
<text text-anchor="middle" x="1769.517" y="-210.8" font-family="Times,serif" font-size="14.00" fill="#000000">S(a)</text>
</g>
<!-- L6&#45;&gt;L6 -->
<g id="edge37" class="edge">
<title>L6&#45;&gt;L6</title>
<path fill="none" stroke="#000000" d="M1769.7884,-161.7305C1769.4694,-172.4374 1772.7123,-181.2507 1779.517,-181.2507 1783.9825,-181.2507 1786.9142,-177.4551 1788.3118,-171.8197"/>
<polygon fill="#000000" stroke="#000000" points="1791.809,-172.0105 1789.2455,-161.7305 1784.8388,-171.3654 1791.809,-172.0105"/>
<text text-anchor="middle" x="1779.517" y="-184.0507" font-family="Times,serif" font-size="14.00" fill="#000000">S(b)</text>
</g>
<!-- L7&#45;&gt;L8 -->
<g id="edge39" class="edge">
<title>L7&#45;&gt;L8</title>
<path fill="none" stroke="#000000" d="M2009.064,-239C2043.8552,-239 2101.0238,-239 2140.8273,-239"/>
<polygon fill="#000000" stroke="#000000" points="2141.0537,-242.5001 2151.0537,-239 2141.0537,-235.5001 2141.0537,-242.5001"/>
<text text-anchor="middle" x="2080.0215" y="-241.8" font-family="Times,serif" font-size="14.00" fill="#000000">S(b)</text>
</g>
<!-- L7&#45;&gt;L5 -->
<g id="edge40" class="edge">
<title>L7&#45;&gt;L5</title>
<path fill="none" stroke="#000000" d="M1949.3601,-247.4987C1914.8132,-257.5675 1857.1111,-274.385 1818.6888,-285.5832"/>
<polygon fill="#000000" stroke="#000000" points="1817.5017,-282.2835 1808.8805,-288.4419 1819.4605,-289.0039 1817.5017,-282.2835"/>
<text text-anchor="middle" x="1881.0185" y="-279.8" font-family="Times,serif" font-size="14.00" fill="#000000">S(a)</text>
</g>
</g>
</svg>
